<mxfile host="65bd71144e">
    <diagram name="第 1 页" id="KRICXccTtEtal8VeHXVG">
        <mxGraphModel dx="872" dy="856" grid="1" gridSize="10" guides="1" tooltips="1" connect="1" arrows="1" fold="1" page="1" pageScale="1" pageWidth="827" pageHeight="1169" math="0" shadow="0">
            <root>
                <mxCell id="0"/>
                <mxCell id="1" parent="0"/>
                <mxCell id="qEawOvrPbvvHzvwFR9lG-12" style="edgeStyle=orthogonalEdgeStyle;rounded=0;orthogonalLoop=1;jettySize=auto;html=1;exitX=1;exitY=0.5;exitDx=0;exitDy=0;entryX=0;entryY=0.5;entryDx=0;entryDy=0;fontSize=14;" parent="1" source="qEawOvrPbvvHzvwFR9lG-1" target="qEawOvrPbvvHzvwFR9lG-3" edge="1">
                    <mxGeometry relative="1" as="geometry"/>
                </mxCell>
                <mxCell id="qEawOvrPbvvHzvwFR9lG-17" style="edgeStyle=orthogonalEdgeStyle;rounded=0;orthogonalLoop=1;jettySize=auto;html=1;exitX=0.5;exitY=1;exitDx=0;exitDy=0;entryX=0.5;entryY=0;entryDx=0;entryDy=0;fontSize=14;fillColor=#dae8fc;strokeColor=#6c8ebf;" parent="1" source="qEawOvrPbvvHzvwFR9lG-1" target="qEawOvrPbvvHzvwFR9lG-8" edge="1">
                    <mxGeometry relative="1" as="geometry"/>
                </mxCell>
                <mxCell id="qEawOvrPbvvHzvwFR9lG-1" value="DreamPlace" style="rounded=1;whiteSpace=wrap;html=1;fontSize=14;" parent="1" vertex="1">
                    <mxGeometry x="160" y="200" width="120" height="60" as="geometry"/>
                </mxCell>
                <mxCell id="qEawOvrPbvvHzvwFR9lG-15" style="edgeStyle=orthogonalEdgeStyle;rounded=0;orthogonalLoop=1;jettySize=auto;html=1;exitX=0.5;exitY=1;exitDx=0;exitDy=0;entryX=0.5;entryY=0;entryDx=0;entryDy=0;fontSize=14;" parent="1" source="qEawOvrPbvvHzvwFR9lG-2" target="qEawOvrPbvvHzvwFR9lG-6" edge="1">
                    <mxGeometry relative="1" as="geometry"/>
                </mxCell>
                <mxCell id="qEawOvrPbvvHzvwFR9lG-2" value="shmetis" style="rounded=1;whiteSpace=wrap;html=1;fontSize=14;" parent="1" vertex="1">
                    <mxGeometry x="280" y="310" width="120" height="60" as="geometry"/>
                </mxCell>
                <mxCell id="qEawOvrPbvvHzvwFR9lG-13" style="edgeStyle=orthogonalEdgeStyle;rounded=0;orthogonalLoop=1;jettySize=auto;html=1;exitX=0.5;exitY=1;exitDx=0;exitDy=0;entryX=0.5;entryY=0;entryDx=0;entryDy=0;fontSize=14;" parent="1" source="qEawOvrPbvvHzvwFR9lG-3" target="qEawOvrPbvvHzvwFR9lG-2" edge="1">
                    <mxGeometry relative="1" as="geometry"/>
                </mxCell>
                <mxCell id="qEawOvrPbvvHzvwFR9lG-14" style="edgeStyle=orthogonalEdgeStyle;rounded=0;orthogonalLoop=1;jettySize=auto;html=1;exitX=0.5;exitY=1;exitDx=0;exitDy=0;entryX=0.5;entryY=0;entryDx=0;entryDy=0;fontSize=14;fillColor=#f8cecc;strokeColor=#b85450;" parent="1" source="qEawOvrPbvvHzvwFR9lG-3" target="qEawOvrPbvvHzvwFR9lG-5" edge="1">
                    <mxGeometry relative="1" as="geometry"/>
                </mxCell>
                <mxCell id="qEawOvrPbvvHzvwFR9lG-3" value="HyperGraph" style="rounded=1;whiteSpace=wrap;html=1;fontSize=14;" parent="1" vertex="1">
                    <mxGeometry x="340" y="200" width="120" height="60" as="geometry"/>
                </mxCell>
                <mxCell id="qEawOvrPbvvHzvwFR9lG-10" style="rounded=0;orthogonalLoop=1;jettySize=auto;html=1;exitX=0.5;exitY=1;exitDx=0;exitDy=0;entryX=0.5;entryY=0;entryDx=0;entryDy=0;fontSize=14;" parent="1" source="qEawOvrPbvvHzvwFR9lG-4" target="qEawOvrPbvvHzvwFR9lG-1" edge="1">
                    <mxGeometry relative="1" as="geometry"/>
                </mxCell>
                <mxCell id="qEawOvrPbvvHzvwFR9lG-4" value="电路描述文件" style="rounded=1;whiteSpace=wrap;html=1;fontSize=14;" parent="1" vertex="1">
                    <mxGeometry x="160" y="60" width="120" height="60" as="geometry"/>
                </mxCell>
                <mxCell id="qEawOvrPbvvHzvwFR9lG-16" style="edgeStyle=orthogonalEdgeStyle;rounded=0;orthogonalLoop=1;jettySize=auto;html=1;exitX=0.5;exitY=1;exitDx=0;exitDy=0;entryX=0.5;entryY=0;entryDx=0;entryDy=0;fontSize=14;fillColor=#f8cecc;strokeColor=#b85450;" parent="1" source="qEawOvrPbvvHzvwFR9lG-5" target="qEawOvrPbvvHzvwFR9lG-7" edge="1">
                    <mxGeometry relative="1" as="geometry"/>
                </mxCell>
                <mxCell id="qEawOvrPbvvHzvwFR9lG-5" value="GNN" style="rounded=1;whiteSpace=wrap;html=1;fontSize=14;" parent="1" vertex="1">
                    <mxGeometry x="560" y="310" width="120" height="60" as="geometry"/>
                </mxCell>
                <mxCell id="qEawOvrPbvvHzvwFR9lG-18" style="edgeStyle=orthogonalEdgeStyle;rounded=0;orthogonalLoop=1;jettySize=auto;html=1;exitX=0.5;exitY=1;exitDx=0;exitDy=0;entryX=1;entryY=0.25;entryDx=0;entryDy=0;fontSize=14;fillColor=#dae8fc;strokeColor=#050505;" parent="1" source="qEawOvrPbvvHzvwFR9lG-6" target="qEawOvrPbvvHzvwFR9lG-8" edge="1">
                    <mxGeometry relative="1" as="geometry"/>
                </mxCell>
                <mxCell id="qEawOvrPbvvHzvwFR9lG-20" style="edgeStyle=orthogonalEdgeStyle;rounded=0;orthogonalLoop=1;jettySize=auto;html=1;exitX=1;exitY=0.5;exitDx=0;exitDy=0;entryX=0;entryY=0.5;entryDx=0;entryDy=0;fontSize=14;fillColor=#f8cecc;strokeColor=#FFB570;" parent="1" source="qEawOvrPbvvHzvwFR9lG-6" target="qEawOvrPbvvHzvwFR9lG-5" edge="1">
                    <mxGeometry relative="1" as="geometry"/>
                </mxCell>
                <mxCell id="qEawOvrPbvvHzvwFR9lG-31" value="监督信号" style="edgeLabel;html=1;align=center;verticalAlign=middle;resizable=0;points=[];fontSize=14;" parent="qEawOvrPbvvHzvwFR9lG-20" vertex="1" connectable="0">
                    <mxGeometry x="-0.1757" y="-1" relative="1" as="geometry">
                        <mxPoint as="offset"/>
                    </mxGeometry>
                </mxCell>
                <mxCell id="qEawOvrPbvvHzvwFR9lG-6" value="Tradition-Partition" style="rounded=1;whiteSpace=wrap;html=1;fontSize=14;" parent="1" vertex="1">
                    <mxGeometry x="280" y="430" width="120" height="60" as="geometry"/>
                </mxCell>
                <mxCell id="qEawOvrPbvvHzvwFR9lG-19" style="edgeStyle=orthogonalEdgeStyle;rounded=0;orthogonalLoop=1;jettySize=auto;html=1;exitX=0.5;exitY=1;exitDx=0;exitDy=0;entryX=1;entryY=0.75;entryDx=0;entryDy=0;fontSize=14;fillColor=#f8cecc;strokeColor=#FFB570;" parent="1" source="qEawOvrPbvvHzvwFR9lG-7" target="qEawOvrPbvvHzvwFR9lG-8" edge="1">
                    <mxGeometry relative="1" as="geometry"/>
                </mxCell>
                <mxCell id="qEawOvrPbvvHzvwFR9lG-30" value="查看效果，寻找改进点" style="edgeLabel;html=1;align=center;verticalAlign=middle;resizable=0;points=[];fontSize=14;" parent="qEawOvrPbvvHzvwFR9lG-19" vertex="1" connectable="0">
                    <mxGeometry x="-0.7168" y="1" relative="1" as="geometry">
                        <mxPoint as="offset"/>
                    </mxGeometry>
                </mxCell>
                <mxCell id="qEawOvrPbvvHzvwFR9lG-7" value="ML-Partition" style="rounded=1;whiteSpace=wrap;html=1;fontSize=14;" parent="1" vertex="1">
                    <mxGeometry x="560" y="460" width="120" height="60" as="geometry"/>
                </mxCell>
                <mxCell id="qEawOvrPbvvHzvwFR9lG-8" value="Placement" style="rounded=1;whiteSpace=wrap;html=1;fontSize=14;" parent="1" vertex="1">
                    <mxGeometry x="160" y="570" width="120" height="60" as="geometry"/>
                </mxCell>
                <mxCell id="2" value="发现之前的算法存在问题，正在调整" style="text;html=1;strokeColor=none;fillColor=none;align=center;verticalAlign=middle;whiteSpace=wrap;rounded=0;fontSize=14;" parent="1" vertex="1">
                    <mxGeometry x="50" y="380" width="170" height="60" as="geometry"/>
                </mxCell>
                <mxCell id="8" style="edgeStyle=orthogonalEdgeStyle;rounded=0;orthogonalLoop=1;jettySize=auto;html=1;exitX=0.5;exitY=1;exitDx=0;exitDy=0;fontSize=14;fillColor=#dae8fc;strokeColor=#6c8ebf;" edge="1" parent="1" source="qEawOvrPbvvHzvwFR9lG-8">
                    <mxGeometry relative="1" as="geometry">
                        <mxPoint x="370" y="700" as="sourcePoint"/>
                        <mxPoint x="460" y="230" as="targetPoint"/>
                        <Array as="points">
                            <mxPoint x="220" y="670"/>
                            <mxPoint x="730" y="670"/>
                            <mxPoint x="730" y="230"/>
                        </Array>
                    </mxGeometry>
                </mxCell>
                <mxCell id="10" value="计算数据流的代码已基本完成，部分小问题仍需要修改" style="text;html=1;strokeColor=none;fillColor=none;align=center;verticalAlign=middle;whiteSpace=wrap;rounded=0;fontSize=14;" vertex="1" parent="1">
                    <mxGeometry x="360" y="680" width="220" height="60" as="geometry"/>
                </mxCell>
            </root>
        </mxGraphModel>
    </diagram>
</mxfile>